<?xml version="1.0" encoding="UTF-8" standalone="no"?>
<!DOCTYPE svg PUBLIC "-//W3C//DTD SVG 1.1//EN"
 "http://www.w3.org/Graphics/SVG/1.1/DTD/svg11.dtd">
<!-- Generated by graphviz version 2.40.1 (20161225.0304)
 -->
<!-- Title: state transitions Pages: 1 -->
<svg width="331pt" height="680pt"
 viewBox="0.00 0.00 331.00 680.00" xmlns="http://www.w3.org/2000/svg" xmlns:xlink="http://www.w3.org/1999/xlink">
<g id="graph0" class="graph" transform="scale(1 1) rotate(0) translate(4 676)">
<title>state transitions</title>
<polygon fill="#ffffff" stroke="transparent" points="-4,4 -4,-676 327,-676 327,4 -4,4"/>
<g id="clust1" class="cluster state regular">
<title>cluster_next_state</title>
<path fill="none" stroke="#000000" stroke-width="2" d="M20,-8C20,-8 303,-8 303,-8 309,-8 315,-14 315,-20 315,-20 315,-652 315,-652 315,-658 309,-664 303,-664 303,-664 20,-664 20,-664 14,-664 8,-658 8,-652 8,-652 8,-20 8,-20 8,-14 14,-8 20,-8"/>
<text text-anchor="start" x="134.3208" y="-645.2" font-family="Helvetica,sans-Serif" font-size="12.00" fill="#000000">next_state</text>
</g>
<!-- next_state -->
<!-- idle_state -->
<g id="node2" class="node state regular">
<title>idle_state</title>
<polygon fill="#ffffff" fill-opacity="0.003922" stroke="transparent" stroke-width="2" points="236.5,-626 163.5,-626 163.5,-590 236.5,-590 236.5,-626"/>
<text text-anchor="start" x="174.8254" y="-604.2" font-family="Helvetica,sans-Serif" font-size="12.00" fill="#000000">idle_state</text>
<path fill="none" stroke="#000000" stroke-width="2" d="M175.8333,-591C175.8333,-591 224.1667,-591 224.1667,-591 229.8333,-591 235.5,-596.6667 235.5,-602.3333 235.5,-602.3333 235.5,-613.6667 235.5,-613.6667 235.5,-619.3333 229.8333,-625 224.1667,-625 224.1667,-625 175.8333,-625 175.8333,-625 170.1667,-625 164.5,-619.3333 164.5,-613.6667 164.5,-613.6667 164.5,-602.3333 164.5,-602.3333 164.5,-596.6667 170.1667,-591 175.8333,-591"/>
</g>
<!-- wait_ -->
<g id="node3" class="node state regular">
<title>wait_</title>
<polygon fill="#ffffff" fill-opacity="0.003922" stroke="transparent" stroke-width="2" points="212,-544 156,-544 156,-508 212,-508 212,-544"/>
<text text-anchor="start" x="169.999" y="-522.2" font-family="Helvetica,sans-Serif" font-size="12.00" fill="#000000">wait_</text>
<path fill="none" stroke="#000000" stroke-width="2" d="M168.3333,-509C168.3333,-509 199.6667,-509 199.6667,-509 205.3333,-509 211,-514.6667 211,-520.3333 211,-520.3333 211,-531.6667 211,-531.6667 211,-537.3333 205.3333,-543 199.6667,-543 199.6667,-543 168.3333,-543 168.3333,-543 162.6667,-543 157,-537.3333 157,-531.6667 157,-531.6667 157,-520.3333 157,-520.3333 157,-514.6667 162.6667,-509 168.3333,-509"/>
</g>
<!-- idle_state&#45;&gt;wait_ -->
<g id="edge1" class="edge transition">
<title>idle_state&#45;&gt;wait_</title>
<path fill="none" stroke="#000000" d="M196.4491,-589.8015C194.3983,-579.2915 191.7757,-565.8503 189.4669,-554.0177"/>
<polygon fill="#000000" stroke="#000000" points="192.8914,-553.2922 187.541,-544.1476 186.021,-554.6328 192.8914,-553.2922"/>
<text text-anchor="start" x="193" y="-564" font-family="Helvetica,sans-Serif" font-size="10.00" fill="#000000">buffer_interrupt == 1 &#160;&#160;</text>
</g>
<!-- wait_ldm_load_use -->
<g id="node4" class="node state regular">
<title>wait_ldm_load_use</title>
<polygon fill="#ffffff" fill-opacity="0.003922" stroke="transparent" stroke-width="2" points="140,-462 16,-462 16,-426 140,-426 140,-462"/>
<text text-anchor="start" x="26.6556" y="-440.2" font-family="Helvetica,sans-Serif" font-size="12.00" fill="#000000">wait_ldm_load_use</text>
<path fill="none" stroke="#000000" stroke-width="2" d="M28.3333,-427C28.3333,-427 127.6667,-427 127.6667,-427 133.3333,-427 139,-432.6667 139,-438.3333 139,-438.3333 139,-449.6667 139,-449.6667 139,-455.3333 133.3333,-461 127.6667,-461 127.6667,-461 28.3333,-461 28.3333,-461 22.6667,-461 17,-455.3333 17,-449.6667 17,-449.6667 17,-438.3333 17,-438.3333 17,-432.6667 22.6667,-427 28.3333,-427"/>
</g>
<!-- wait_&#45;&gt;wait_ldm_load_use -->
<g id="edge2" class="edge transition">
<title>wait_&#45;&gt;wait_ldm_load_use</title>
<path fill="none" stroke="#000000" d="M155.919,-519.2166C138.7442,-513.8946 117.2598,-504.9943 102.227,-491 96.4989,-485.6676 91.8992,-478.6747 88.3115,-471.7184"/>
<polygon fill="#000000" stroke="#000000" points="91.3919,-470.0395 84.0357,-462.4148 85.0315,-472.9628 91.3919,-470.0395"/>
<text text-anchor="start" x="102" y="-482" font-family="Helvetica,sans-Serif" font-size="10.00" fill="#000000">ldm || load_use &#160;&#160;</text>
</g>
<!-- freezePc -->
<g id="node5" class="node state regular">
<title>freezePc</title>
<polygon fill="#ffffff" fill-opacity="0.003922" stroke="transparent" stroke-width="2" points="218.5,-380 149.5,-380 149.5,-344 218.5,-344 218.5,-380"/>
<text text-anchor="start" x="160.8276" y="-358.2" font-family="Helvetica,sans-Serif" font-size="12.00" fill="#000000">freezePc</text>
<path fill="none" stroke="#000000" stroke-width="2" d="M161.8333,-345C161.8333,-345 206.1667,-345 206.1667,-345 211.8333,-345 217.5,-350.6667 217.5,-356.3333 217.5,-356.3333 217.5,-367.6667 217.5,-367.6667 217.5,-373.3333 211.8333,-379 206.1667,-379 206.1667,-379 161.8333,-379 161.8333,-379 156.1667,-379 150.5,-373.3333 150.5,-367.6667 150.5,-367.6667 150.5,-356.3333 150.5,-356.3333 150.5,-350.6667 156.1667,-345 161.8333,-345"/>
</g>
<!-- wait_&#45;&gt;freezePc -->
<g id="edge3" class="edge transition">
<title>wait_&#45;&gt;freezePc</title>
<path fill="none" stroke="#000000" d="M184,-507.6312C184,-500.5574 184,-492.4028 184,-485 184,-485 184,-485 184,-403 184,-398.9516 184,-394.6784 184,-390.48"/>
<polygon fill="#000000" stroke="#000000" points="187.5001,-390.3687 184,-380.3688 180.5001,-390.3688 187.5001,-390.3687"/>
<text text-anchor="start" x="184" y="-441" font-family="Helvetica,sans-Serif" font-size="10.00" fill="#000000">not (ldm || load_use) &#160;&#160;</text>
</g>
<!-- wait_ldm_load_use&#45;&gt;freezePc -->
<g id="edge4" class="edge transition">
<title>wait_ldm_load_use&#45;&gt;freezePc</title>
<path fill="none" stroke="#000000" d="M101.5248,-425.8015C116.4834,-414.2298 136.035,-399.105 152.3474,-386.486"/>
<polygon fill="#000000" stroke="#000000" points="154.7729,-389.0347 160.5409,-380.1476 150.4898,-383.498 154.7729,-389.0347"/>
<text text-anchor="middle" x="139.3895" y="-400" font-family="Helvetica,sans-Serif" font-size="10.00" fill="#000000"> </text>
</g>
<!-- freezePc_cu -->
<g id="node6" class="node state regular">
<title>freezePc_cu</title>
<polygon fill="#ffffff" fill-opacity="0.003922" stroke="transparent" stroke-width="2" points="255,-298 167,-298 167,-262 255,-262 255,-298"/>
<text text-anchor="start" x="177.6568" y="-276.2" font-family="Helvetica,sans-Serif" font-size="12.00" fill="#000000">freezePc_cu</text>
<path fill="none" stroke="#000000" stroke-width="2" d="M179.3333,-263C179.3333,-263 242.6667,-263 242.6667,-263 248.3333,-263 254,-268.6667 254,-274.3333 254,-274.3333 254,-285.6667 254,-285.6667 254,-291.3333 248.3333,-297 242.6667,-297 242.6667,-297 179.3333,-297 179.3333,-297 173.6667,-297 168,-291.3333 168,-285.6667 168,-285.6667 168,-274.3333 168,-274.3333 168,-268.6667 173.6667,-263 179.3333,-263"/>
</g>
<!-- freezePc&#45;&gt;freezePc_cu -->
<g id="edge5" class="edge transition">
<title>freezePc&#45;&gt;freezePc_cu</title>
<path fill="none" stroke="#000000" d="M189.9922,-343.8015C193.4878,-333.1853 197.9681,-319.5784 201.8926,-307.6596"/>
<polygon fill="#000000" stroke="#000000" points="205.2214,-308.7406 205.0246,-298.1476 198.5726,-306.5513 205.2214,-308.7406"/>
<text text-anchor="middle" x="200.3895" y="-318" font-family="Helvetica,sans-Serif" font-size="10.00" fill="#000000"> </text>
</g>
<!-- push_pc1 -->
<g id="node7" class="node state regular">
<title>push_pc1</title>
<polygon fill="#ffffff" fill-opacity="0.003922" stroke="transparent" stroke-width="2" points="253,-216 179,-216 179,-180 253,-180 253,-216"/>
<text text-anchor="start" x="189.9876" y="-194.2" font-family="Helvetica,sans-Serif" font-size="12.00" fill="#000000">push_pc1</text>
<path fill="none" stroke="#000000" stroke-width="2" d="M191.3333,-181C191.3333,-181 240.6667,-181 240.6667,-181 246.3333,-181 252,-186.6667 252,-192.3333 252,-192.3333 252,-203.6667 252,-203.6667 252,-209.3333 246.3333,-215 240.6667,-215 240.6667,-215 191.3333,-215 191.3333,-215 185.6667,-215 180,-209.3333 180,-203.6667 180,-203.6667 180,-192.3333 180,-192.3333 180,-186.6667 185.6667,-181 191.3333,-181"/>
</g>
<!-- freezePc_cu&#45;&gt;push_pc1 -->
<g id="edge6" class="edge transition">
<title>freezePc_cu&#45;&gt;push_pc1</title>
<path fill="none" stroke="#000000" d="M212.1097,-261.8015C212.744,-251.3976 213.5536,-238.1215 214.2697,-226.3768"/>
<polygon fill="#000000" stroke="#000000" points="217.7782,-226.3421 214.8934,-216.1476 210.7912,-225.916 217.7782,-226.3421"/>
<text text-anchor="middle" x="214.3895" y="-236" font-family="Helvetica,sans-Serif" font-size="10.00" fill="#000000"> </text>
</g>
<!-- push_pc2 -->
<g id="node8" class="node state regular">
<title>push_pc2</title>
<polygon fill="#ffffff" fill-opacity="0.003922" stroke="transparent" stroke-width="2" points="273,-134 199,-134 199,-98 273,-98 273,-134"/>
<text text-anchor="start" x="209.9876" y="-112.2" font-family="Helvetica,sans-Serif" font-size="12.00" fill="#000000">push_pc2</text>
<path fill="none" stroke="#000000" stroke-width="2" d="M211.3333,-99C211.3333,-99 260.6667,-99 260.6667,-99 266.3333,-99 272,-104.6667 272,-110.3333 272,-110.3333 272,-121.6667 272,-121.6667 272,-127.3333 266.3333,-133 260.6667,-133 260.6667,-133 211.3333,-133 211.3333,-133 205.6667,-133 200,-127.3333 200,-121.6667 200,-121.6667 200,-110.3333 200,-110.3333 200,-104.6667 205.6667,-99 211.3333,-99"/>
</g>
<!-- push_pc1&#45;&gt;push_pc2 -->
<g id="edge7" class="edge transition">
<title>push_pc1&#45;&gt;push_pc2</title>
<path fill="none" stroke="#000000" d="M220.4386,-179.8015C223.0021,-169.2915 226.2804,-155.8503 229.1664,-144.0177"/>
<polygon fill="#000000" stroke="#000000" points="232.6044,-144.6922 231.5738,-134.1476 225.8038,-143.0334 232.6044,-144.6922"/>
<text text-anchor="middle" x="228.3895" y="-154" font-family="Helvetica,sans-Serif" font-size="10.00" fill="#000000"> </text>
</g>
<!-- push_ccr -->
<g id="node9" class="node state regular">
<title>push_ccr</title>
<polygon fill="#ffffff" fill-opacity="0.003922" stroke="transparent" stroke-width="2" points="289,-52 219,-52 219,-16 289,-16 289,-52"/>
<text text-anchor="start" x="229.661" y="-30.2" font-family="Helvetica,sans-Serif" font-size="12.00" fill="#000000">push_ccr</text>
<path fill="none" stroke="#000000" stroke-width="2" d="M231.3333,-17C231.3333,-17 276.6667,-17 276.6667,-17 282.3333,-17 288,-22.6667 288,-28.3333 288,-28.3333 288,-39.6667 288,-39.6667 288,-45.3333 282.3333,-51 276.6667,-51 276.6667,-51 231.3333,-51 231.3333,-51 225.6667,-51 220,-45.3333 220,-39.6667 220,-39.6667 220,-28.3333 220,-28.3333 220,-22.6667 225.6667,-17 231.3333,-17"/>
</g>
<!-- push_pc2&#45;&gt;push_ccr -->
<g id="edge8" class="edge transition">
<title>push_pc2&#45;&gt;push_ccr</title>
<path fill="none" stroke="#000000" d="M239.9948,-97.8015C242.3019,-87.2915 245.2524,-73.8503 247.8498,-62.0177"/>
<polygon fill="#000000" stroke="#000000" points="251.2908,-62.6655 250.0164,-52.1476 244.4536,-61.1646 251.2908,-62.6655"/>
<text text-anchor="middle" x="247.3895" y="-72" font-family="Helvetica,sans-Serif" font-size="10.00" fill="#000000"> </text>
</g>
<!-- push_ccr&#45;&gt;idle_state -->
<g id="edge9" class="edge transition">
<title>push_ccr&#45;&gt;idle_state</title>
<path fill="none" stroke="#000000" d="M289.2688,-50.2049C297.5425,-56.4724 304,-64.6723 304,-75 304,-362 304,-362 304,-362 304,-410.2304 306,-422.2696 306,-470.5 306,-567 306,-567 306,-567 306,-580.6349 275.106,-591.4974 246.6751,-598.607"/>
<polygon fill="#000000" stroke="#000000" points="245.6937,-595.2427 236.7762,-600.9636 247.3149,-602.0524 245.6937,-595.2427"/>
<text text-anchor="middle" x="305.3895" y="-318" font-family="Helvetica,sans-Serif" font-size="10.00" fill="#000000"> </text>
</g>
</g>
</svg>
